<svg width="16" height="26" viewBox="0 0 16 26" fill="none" xmlns="http://www.w3.org/2000/svg">
<path d="M4.56611 0.771866C3.52155 -0.257289 1.82798 -0.257289 0.783421 0.771867C-0.261139 1.80102 -0.261141 3.46961 0.783419 4.49877L7.48702 11.1035C8.60153 12.2016 8.60153 13.9819 7.48702 15.08L1.02674 21.445C-0.030876 22.487 -0.0308762 24.1765 1.02674 25.2185C2.08436 26.2605 3.7991 26.2605 4.85672 25.2185L15.2068 15.0211C16.2644 13.979 16.2644 12.2896 15.2068 11.2476L13.2938 9.36283C13.2927 9.36172 13.2909 9.36172 13.2898 9.36283C13.2886 9.36394 13.2868 9.36394 13.2857 9.36283L4.56611 0.771866Z" fill="#B76F51"/>
</svg>
