<svg width="213" height="167" viewBox="0 0 213 167" fill="none" xmlns="http://www.w3.org/2000/svg">
<path d="M127.403 20.1891H86.1636V53.235H127.403V20.1891Z" fill="white"/>
<path d="M106.711 61.502C104.297 61.502 102.032 60.5444 100.333 58.8049C98.6339 57.0653 96.6488 53.6768 96.8433 47.4043C97.2323 37.4542 102.667 33.9298 107.203 33.9298C109.892 33.9298 112.34 35.1027 114.097 37.2332C116.087 39.6471 117.094 43.0865 117.094 47.4496C117.008 57.1616 111.826 61.502 106.723 61.502H106.711Z" fill="#303030"/>
<path d="M107.203 35.3407C111.339 35.3407 115.658 38.7292 115.658 47.4439C115.578 56.4307 111.025 60.0855 106.717 60.0855C102.381 60.0855 97.9931 56.4307 98.2734 47.4439C98.6167 38.7292 103.09 35.3407 107.203 35.3407ZM107.203 32.5076C104.114 32.5076 101.26 33.8448 99.1544 36.2813C96.8605 38.9332 95.6019 42.6559 95.4189 47.3363C95.2072 54.1302 97.4211 57.8529 99.3146 59.7908C101.288 61.808 103.92 62.9186 106.723 62.9186C112.535 62.9186 118.438 58.1419 118.53 47.4723C118.53 42.7466 117.415 39.0068 115.212 36.338C113.181 33.8731 110.338 32.5132 107.22 32.5132L107.203 32.5076Z" fill="white"/>
<path d="M103.119 42.9392C104.755 42.9392 106.082 41.6251 106.082 40.0041C106.082 38.383 104.755 37.0689 103.119 37.0689C101.482 37.0689 100.155 38.383 100.155 40.0041C100.155 41.6251 101.482 42.9392 103.119 42.9392Z" fill="white"/>
<path d="M125.441 59.4395C125.006 59.4395 124.6 59.2468 124.325 58.9125C124.056 58.5782 123.948 58.1419 124.045 57.7226C124.777 54.4305 125.109 50.838 125.034 47.0303C124.537 29.6517 115.87 21.8549 107.501 21.8379C99.1088 21.8492 90.1046 29.6631 88.9147 47.0926C88.6859 50.8834 88.8804 54.4815 89.4811 57.7736C89.5554 58.1872 89.441 58.6122 89.1722 58.9352C88.8976 59.2582 88.4971 59.4452 88.0738 59.4452H67.4855C67.3367 59.4452 67.2223 59.4452 67.1079 59.4452C66.982 59.4452 66.8619 59.4452 66.7361 59.4452H59.1162C58.3611 59.4452 57.7376 58.8672 57.6861 58.1192C56.9882 47.3703 61.5361 36.287 64.3506 30.5697L64.3677 30.53C65.4661 27.9518 66.4329 25.997 67.0049 24.8864C65.7922 23.6681 64.0016 21.0616 63.9444 16.2169C63.87 10.0067 66.3699 5.26962 68.5323 3.09943C69.6192 2.0115 70.7347 1.43353 71.753 1.43353C72.9314 1.43353 74.2472 2.22115 74.3902 4.42534C74.6648 8.60141 77.2448 10.6753 78.6692 11.6669C86.2947 5.98358 96.2886 2.86711 106.935 2.86711C107.243 2.86711 107.552 2.86711 107.861 2.87277C108.113 2.87277 108.416 2.86711 108.719 2.86711C119.371 2.86711 129.245 5.98924 136.659 11.6782C138.129 10.6866 140.829 8.60141 141.269 4.38568C141.493 2.22115 142.814 1.45053 143.97 1.45053C144.994 1.45053 146.098 2.03416 147.15 3.13342C149.238 5.30929 151.561 10.0576 151.235 16.2906C150.983 21.1579 149.078 23.7531 147.825 24.9487C148.357 26.065 149.244 28.0198 150.239 30.598L150.251 30.632C152.836 36.355 156.944 47.4383 155.823 58.1816C155.748 58.9012 155.13 59.4508 154.398 59.4508H125.446L125.441 59.4395ZM107.655 12.4092C116.557 12.5168 122.414 18.6421 125.475 23.9174C124.926 21.6566 123.576 19.3901 121.539 17.3502C118.05 13.8597 113.13 11.6895 108.702 11.6895C108.462 11.6895 108.227 11.6952 107.987 11.7065C107.964 11.7065 107.896 11.7065 107.89 11.7065C107.741 11.7065 107.598 11.7065 107.449 11.7065C97.0894 11.7065 91.632 17.2765 89.6641 22.4952C92.5359 17.6788 97.8503 12.4035 107.341 12.4035H107.655V12.4092Z" fill="#303030"/>
<path d="M71.7416 2.84449C72.4109 2.84449 72.88 3.36579 72.9486 4.51038C73.3491 10.647 78.1372 12.8795 78.6864 13.4235C86.5579 7.21321 96.8435 4.27239 106.917 4.27239C107.215 4.27239 107.518 4.27239 107.816 4.27806C108.107 4.27806 108.405 4.27239 108.697 4.27239C118.776 4.27239 128.953 7.21321 136.579 13.4291C137.151 12.8852 142.03 10.6583 142.671 4.51605C142.791 3.37712 143.277 2.85015 143.947 2.85015C146.115 2.85015 150.194 8.36347 149.787 16.2C149.45 22.6709 146.023 24.5351 146.023 24.5351C146.023 24.5351 147.328 27.0509 148.884 31.0797C152.596 39.2448 155.314 49.1722 154.387 58.0173H146.447C146.407 58.0173 146.372 58.0173 146.332 58.0173H125.435C126.161 54.7422 126.539 51.0647 126.459 46.9963C125.944 28.9322 116.625 20.4327 107.501 20.4157C98.3766 20.4327 88.7203 28.9265 87.4846 46.9907C87.2386 51.0648 87.4675 54.7422 88.0681 58.0173H67.4798C67.3539 58.0173 67.2281 58.0173 67.0965 58.0173C66.9649 58.0173 66.8333 58.0173 66.7018 58.0173H59.1106C58.5385 49.1722 61.6505 39.2392 65.6892 31.074C67.4054 27.0453 68.8127 24.5294 68.8127 24.5294C68.8127 24.5294 65.4547 22.6596 65.3803 16.1886C65.2831 8.35213 69.5849 2.83882 71.753 2.83882L71.7416 2.84449ZM107.913 10.2957C107.758 10.2957 107.604 10.2957 107.455 10.2957C94.2864 10.2957 87.8793 19.0501 87.3988 26.1557C87.3245 27.2776 87.1643 30.0881 88.0681 30.0881C89.012 26.15 93.2395 13.8258 107.341 13.8258C107.438 13.8258 107.541 13.8258 107.638 13.8258C119.646 13.9731 125.715 26.1217 126.51 30.0881C127.414 30.0881 127.168 27.3909 127.18 26.2747C127.26 18.1832 117.706 10.273 108.697 10.273C108.433 10.273 108.17 10.2787 107.907 10.2957H107.913ZM71.7416 0.0113326C70.3343 0.0113326 68.8699 0.730953 67.5084 2.09653C65.1515 4.45938 62.4285 9.57606 62.5086 16.2226C62.5658 20.7104 63.9845 23.4925 65.2888 25.1074C64.7053 26.2803 63.9158 27.9406 63.0463 29.9748C60.1689 35.8394 55.5409 47.155 56.2617 58.2043C56.359 59.6945 57.606 60.8561 59.1163 60.8561H66.7075C66.7075 60.8561 66.7475 60.8561 66.7647 60.8561C66.8791 60.8561 66.9878 60.8561 67.1022 60.8561C67.2109 60.8561 67.3139 60.8561 67.4226 60.8561C67.4454 60.8561 67.4626 60.8561 67.4855 60.8561H88.0738C88.9205 60.8561 89.7271 60.4821 90.2705 59.8419C90.814 59.1959 91.0428 58.346 90.8884 57.5187C90.3106 54.3399 90.1275 50.8551 90.3449 47.1607C90.8712 39.4432 93.0793 33.0686 96.7291 28.7565C99.7267 25.2094 103.554 23.2545 107.507 23.2489C111.42 23.2545 115.144 25.1924 117.975 28.7055C121.436 33.0006 123.381 39.3525 123.604 47.0757C123.679 50.7418 123.358 54.2265 122.649 57.411C122.46 58.2496 122.672 59.1279 123.215 59.7965C123.759 60.4651 124.577 60.8561 125.446 60.8561H154.398C155.863 60.8561 157.093 59.7569 157.241 58.312C158.391 47.2627 154.221 35.947 151.572 30.0824C150.789 28.0482 150.068 26.388 149.53 25.2094C150.892 23.6228 152.43 20.852 152.665 16.3473C153.008 9.67239 150.468 4.52171 148.186 2.14186C146.853 0.753619 145.394 0.0169989 143.964 0.0169989C142.265 0.0169989 140.165 1.11626 139.845 4.2214C139.536 7.15654 137.969 8.86777 136.67 9.89337C129.113 4.41972 119.28 1.42791 108.714 1.42791C108.422 1.42791 108.124 1.42791 107.833 1.43358C107.535 1.43358 107.232 1.42791 106.935 1.42791C96.3801 1.42791 86.4378 4.41405 78.6807 9.88204C77.4507 8.86777 76.0034 7.18488 75.8146 4.31773C75.6201 1.33725 73.6351 0 71.753 0L71.7416 0.0113326Z" fill="white"/>
<path d="M106.174 165.433C76.9818 165.433 40.2729 160.776 33.9173 159.937C33.78 160.147 33.6428 160.345 33.494 160.532C31.6119 162.974 28.6372 164.436 25.531 164.436H20.2566C15.8975 164.436 12.0304 161.614 10.7147 157.529C10.5945 157.427 10.4744 157.325 10.36 157.223C7.1908 154.344 4.84536 150.871 3.38661 146.888C2.08804 143.341 1.43018 139.561 1.43018 135.657C1.43018 131.753 2.09376 127.951 3.40378 124.285C4.39916 121.503 5.8007 119.015 7.57408 116.868C7.0249 116.443 6.52721 115.961 6.08673 115.428C4.17605 113.139 3.4095 110.153 3.97583 107.235L12.8599 61.6211C13.7695 56.9634 17.8997 53.5806 22.6878 53.5806H36.3028C38.5453 53.5806 40.6733 54.3059 42.4181 55.6488C44.1629 54.3059 46.291 53.5806 48.5391 53.5806H66.0384C67.1139 53.5806 68.1836 53.7506 69.2019 54.0906C70.838 54.6289 72.4283 55.3541 73.9385 56.2494C75.7805 54.5382 78.2118 53.5806 80.7689 53.5806H98.2681C99.3436 53.5806 100.413 53.7506 101.432 54.0906C104.744 55.1842 107.724 56.935 110.31 59.3036C111.923 55.8811 115.43 53.5806 119.383 53.5806H132.998C136.012 53.5806 138.844 54.9348 140.732 57.207C142.151 56.0681 143.758 55.1162 145.526 54.3739C146.773 53.8469 148.089 53.5806 149.444 53.5806H165.233C167.396 53.5806 169.466 54.2662 171.183 55.5298C172.899 54.2662 174.97 53.5806 177.138 53.5806H190.753C195.587 53.5806 199.728 57.003 200.598 61.7117L209.019 107.325C209.556 110.227 208.767 113.19 206.862 115.457C206.427 115.972 205.941 116.443 205.409 116.856C207.182 119.004 208.584 121.491 209.579 124.279C210.889 127.945 211.553 131.77 211.553 135.646C211.553 139.521 210.895 143.329 209.596 146.882C208.138 150.86 205.792 154.339 202.629 157.217C200.85 158.838 198.653 159.285 196.525 159.716L196.153 159.79C196.113 159.795 196.079 159.807 196.039 159.807C195.592 159.863 150.772 165.371 106.483 165.428H106.145L106.174 165.433Z" fill="#303030"/>
<path d="M190.781 54.9971C194.923 54.9971 198.475 57.9323 199.219 61.9667L207.64 107.58C208.097 110.062 207.422 112.618 205.792 114.55C205.083 115.389 204.225 116.069 203.275 116.573C205.443 118.834 207.119 121.571 208.258 124.749C209.516 128.262 210.151 131.928 210.151 135.646C210.151 139.363 209.522 143 208.281 146.395C206.902 150.157 204.682 153.443 201.69 156.169C200.106 157.608 198.058 157.959 195.89 158.401C195.89 158.401 151.218 163.954 106.511 164.011C106.397 164.011 106.288 164.011 106.174 164.011C73.99 164.011 33.1565 158.401 33.1565 158.401C32.9276 158.843 32.6645 159.268 32.3556 159.671C30.7309 161.779 28.2082 163.014 25.5309 163.014H20.2566C16.3895 163.014 13.0029 160.453 11.9846 156.764L11.9617 156.69C11.7443 156.526 11.5327 156.356 11.3267 156.169C8.32916 153.449 6.10958 150.157 4.73092 146.395C3.48955 143 2.86029 139.385 2.86029 135.646C2.86029 131.906 3.49527 128.262 4.7538 124.749C5.8922 121.571 7.56832 118.834 9.73642 116.573C8.77537 116.057 7.90584 115.372 7.19077 114.516C5.5604 112.561 4.89681 109.983 5.38306 107.495L14.2671 61.8817C15.0451 57.8813 18.5804 54.9914 22.6935 54.9914H36.3085C38.6825 54.9914 40.8564 55.9547 42.4238 57.5356C43.9798 55.966 46.1479 54.9914 48.5448 54.9914H66.0441C66.9651 54.9914 67.8804 55.1388 68.7556 55.4278C70.6949 56.068 72.4969 56.9577 74.1787 58.0626C75.7519 56.187 78.1259 54.9914 80.7803 54.9914H98.2795C99.2005 54.9914 100.116 55.1388 100.991 55.4278C104.824 56.6913 108.17 58.8842 110.956 61.9497L110.968 61.8817C111.746 57.8813 115.281 54.9914 119.394 54.9914H133.009C136.178 54.9914 138.993 56.7083 140.48 59.3205C142.042 57.8189 143.924 56.5837 146.098 55.6714C147.162 55.2238 148.3 54.9914 149.456 54.9914H165.245C167.556 54.9914 169.649 55.9037 171.194 57.377C172.75 55.8924 174.861 54.9914 177.149 54.9914H190.764L190.781 54.9971ZM190.764 52.1583H177.149C175.021 52.1583 172.973 52.7363 171.194 53.8129C169.415 52.7363 167.367 52.1583 165.245 52.1583H149.456C147.911 52.1583 146.401 52.4643 144.977 53.0592C143.512 53.6769 142.151 54.4248 140.909 55.2974C138.81 53.3142 135.99 52.1583 133.009 52.1583H119.394C115.527 52.1583 112.026 54.0905 109.944 57.105C107.535 55.1728 104.841 53.7109 101.889 52.7419C100.722 52.3566 99.5037 52.1583 98.2738 52.1583H80.7746C78.2117 52.1583 75.7633 53.0026 73.7783 54.5211C72.4511 53.8015 71.0667 53.2066 69.6538 52.7419C68.4868 52.3566 67.2683 52.1583 66.0384 52.1583H48.5391C46.3367 52.1583 44.2315 52.7703 42.4181 53.9148C40.6047 52.7703 38.4995 52.1583 36.3028 52.1583H22.6878C17.2132 52.1583 12.488 56.0227 11.4526 61.3434L2.57998 106.963C1.93356 110.295 2.8088 113.706 4.98834 116.324C5.19428 116.567 5.40595 116.805 5.63477 117.032C4.14742 119.049 2.9461 121.316 2.05941 123.803C0.69219 127.616 0 131.6 0 135.646C0 139.691 0.686469 143.658 2.04225 147.364C3.58108 151.562 6.05237 155.228 9.39319 158.26C9.42179 158.288 9.45611 158.316 9.48472 158.345C11.0979 162.804 15.4112 165.853 20.2566 165.853H25.5309C29.0548 165.853 32.43 164.209 34.5809 161.45C42.8929 162.527 78.0058 166.85 106.168 166.85H106.506C150.875 166.793 195.787 161.274 196.233 161.223C196.307 161.212 196.387 161.201 196.462 161.184L196.834 161.11C199.036 160.657 201.536 160.147 203.613 158.265C206.953 155.234 209.425 151.568 210.958 147.369C212.314 143.663 213 139.72 213 135.651C213 131.583 212.308 127.628 210.941 123.809C210.048 121.321 208.853 119.049 207.365 117.037C207.577 116.822 207.783 116.601 207.977 116.369C210.157 113.779 211.055 110.391 210.443 107.07L202.022 61.4567C201.027 56.0737 196.296 52.164 190.77 52.164L190.764 52.1583Z" fill="white"/>
<path d="M175.158 75.0898H41.5083V53.6485C41.5083 53.6485 86.8267 50.855 108.296 50.855C131.933 50.855 175.152 53.6485 175.152 53.6485V75.0898H175.158Z" fill="#303030"/>
<path d="M25.4053 121.35C25.5426 121.35 25.6799 121.395 25.7828 121.485C27.6191 123.021 28.9978 125.055 29.9016 127.594C30.8341 130.206 31.3032 132.892 31.3032 135.651C31.3032 138.411 30.8513 141.029 29.9417 143.505C29.0607 145.907 27.6763 147.992 25.7885 149.755C25.6799 149.857 25.5368 149.908 25.3881 149.908H25.0105C24.633 149.908 24.3584 150.265 24.4614 150.622L25.3423 153.8C25.4396 154.163 25.1707 154.514 24.7932 154.514H20.7087C20.4512 154.514 20.2224 154.344 20.1595 154.095L19.1126 150.321C19.044 150.078 18.8209 149.902 18.5635 149.902H17.3736C17.2248 149.902 17.0818 149.845 16.9731 149.749C15.0853 147.987 13.6952 145.902 12.82 143.499C11.9161 141.023 11.4585 138.405 11.4585 135.646C11.4585 132.886 11.9276 130.2 12.86 127.588C13.7696 125.05 15.1425 123.015 16.9789 121.48C17.0818 121.395 17.2191 121.344 17.3564 121.344H25.4167L25.4053 121.35ZM20.1709 145.176H22.585C22.7624 145.176 22.9283 145.103 23.0369 144.967C23.649 144.168 24.1753 142.955 24.6158 141.323C25.0964 139.544 25.3366 137.657 25.3366 135.674C25.3366 133.691 25.1021 131.821 24.6387 130.064C24.2097 128.461 23.6891 127.259 23.0827 126.461C22.9797 126.325 22.8081 126.251 22.6308 126.251H20.1767C19.9993 126.251 19.8334 126.325 19.7305 126.461C19.1183 127.259 18.5921 128.461 18.1516 130.064C17.671 131.821 17.4308 133.691 17.4308 135.674C17.4308 137.657 17.671 139.544 18.1516 141.323C18.5921 142.955 19.1183 144.168 19.7305 144.967C19.8334 145.103 20.005 145.176 20.1767 145.176H20.1709Z" fill="white"/>
<path d="M41.6057 146.944L44.5404 147.222C44.7063 147.239 44.8722 147.177 44.9866 147.052C45.5072 146.463 45.8847 145.845 46.125 145.21C46.3939 144.508 46.5254 143.437 46.5254 142.009V121.967C46.5254 121.627 46.7886 121.35 47.1147 121.35H51.8227C52.1602 121.35 52.4348 121.633 52.4348 121.984V140.179C52.4348 141.731 52.4005 142.933 52.3261 143.794C52.2517 144.655 52.0687 145.692 51.7769 146.91C51.2964 149.018 49.9921 150.916 47.8869 152.588C47.7782 152.673 47.6352 152.713 47.4922 152.696L38.7798 151.704C38.6482 151.687 38.5166 151.625 38.4194 151.517C36.4858 149.528 35.3188 147.483 34.8898 145.363C34.5008 143.595 34.312 141.459 34.312 138.96V121.945C34.312 121.616 34.5523 121.355 34.8497 121.355H39.1459C39.4548 121.355 39.7008 121.627 39.7008 121.962V141.499C39.7008 142.893 39.8266 143.952 40.0841 144.689C40.3129 145.352 40.679 146.021 41.1824 146.695C41.2911 146.837 41.4513 146.933 41.6172 146.944H41.6057Z" fill="white"/>
<path d="M67.9835 153.885L67.2799 149.664C67.2284 149.352 66.9881 149.114 66.7078 149.092L61.1474 148.735C60.8785 148.718 60.644 148.922 60.5925 149.222L59.9175 153.273C59.866 153.574 59.6372 153.778 59.3683 153.755L55.0721 153.426C54.7289 153.398 54.4715 153.018 54.5344 152.627L59.7058 121.859C59.7573 121.559 59.9861 121.338 60.255 121.338H67.8348C68.1151 121.338 68.3553 121.565 68.4068 121.876L73.6354 154.055C73.7041 154.469 73.418 154.826 73.0462 154.798L68.5498 154.458C68.2695 154.435 68.0293 154.191 67.9778 153.88L67.9835 153.885ZM63.8361 127.435L62.2343 138.275L61.462 143.017C61.3991 143.414 61.6622 143.794 62.0169 143.811L65.7811 144.009C66.1415 144.026 66.416 143.669 66.3474 143.261L65.5236 138.405L63.9104 127.435H63.8303H63.8361Z" fill="white"/>
<path d="M76.713 121.35H86.9013C86.97 121.35 87.0386 121.361 87.1015 121.389C88.8063 122.086 90.2707 123.344 91.4949 125.169C92.742 127.039 93.3713 129.322 93.3713 132.025C93.3713 136.241 92.0098 139.351 89.3097 141.346C89.0866 141.51 88.9779 141.833 89.0694 142.139L92.885 155.002C93.0166 155.455 92.7363 155.908 92.3301 155.886L87.7079 155.642C87.4619 155.631 87.2388 155.432 87.1587 155.149L83.9094 143.488C83.8294 143.21 83.612 143.017 83.366 143.006L82.1761 142.966C81.8615 142.955 81.6098 143.25 81.6098 143.624V154.65C81.6098 155.024 81.3581 155.313 81.0434 155.296L76.7072 155.07C76.3983 155.053 76.1523 154.741 76.1523 154.373V122.024C76.1523 121.656 76.404 121.355 76.7072 121.355L76.713 121.35ZM81.6155 127.849V136.836C81.6155 137.21 81.8672 137.516 82.1818 137.521L85.0478 137.595C85.1108 137.595 85.1737 137.595 85.2309 137.572C85.6771 137.408 86.1634 136.87 86.6896 135.952C87.256 134.971 87.542 133.81 87.542 132.467C87.542 131.124 87.3018 129.951 86.8155 128.931C86.3636 127.979 85.9174 127.418 85.4769 127.237C85.414 127.214 85.351 127.203 85.2881 127.203L82.1761 127.175C81.8615 127.175 81.6098 127.469 81.6098 127.843L81.6155 127.849Z" fill="white"/>
<path d="M99.9842 127.271L94.9272 127.259C94.6125 127.259 94.3608 126.953 94.3608 126.574V122.029C94.3608 121.65 94.6183 121.344 94.9272 121.344H111.826C112.146 121.344 112.404 121.65 112.404 122.029V126.596C112.404 126.976 112.146 127.282 111.826 127.282L106.734 127.271C106.42 127.271 106.162 127.577 106.162 127.956V155.245C106.162 155.625 105.905 155.931 105.59 155.925L101.134 155.88C100.819 155.88 100.562 155.568 100.562 155.189V127.945C100.562 127.565 100.305 127.259 99.9899 127.259L99.9842 127.271Z" fill="white"/>
<path d="M114.789 155.262V122.035C114.789 121.656 115.046 121.35 115.367 121.35H129.01C129.325 121.35 129.577 121.656 129.577 122.03V126.551C129.577 126.925 129.325 127.231 129.01 127.231L121.036 127.26C120.721 127.26 120.464 127.565 120.464 127.945V134.801C120.464 135.181 120.721 135.481 121.036 135.481L128.032 135.425C128.347 135.425 128.599 135.725 128.599 136.099V140.428C128.599 140.802 128.347 141.114 128.032 141.114L121.036 141.193C120.721 141.193 120.464 141.505 120.464 141.884V149.432C120.464 149.811 120.721 150.112 121.036 150.106L129.176 149.97C129.491 149.97 129.743 150.265 129.743 150.639V154.962C129.743 155.336 129.491 155.648 129.176 155.653L115.367 155.925C115.046 155.931 114.789 155.631 114.789 155.251V155.262Z" fill="white"/>
<path d="M132.906 154.815V122.03C132.906 121.656 133.164 121.35 133.484 121.35H137.98C138.295 121.35 138.547 121.65 138.547 122.024V154.565C138.547 154.939 138.295 155.251 137.98 155.262L133.484 155.461C133.164 155.472 132.906 155.183 132.906 154.809V154.815Z" fill="white"/>
<path d="M143.094 121.35H153.494C153.563 121.35 153.632 121.361 153.695 121.389C155.359 122.052 156.772 123.253 157.945 124.97C159.129 126.716 159.724 128.863 159.724 131.407C159.724 135.379 158.437 138.388 155.851 140.456C155.634 140.632 155.531 140.949 155.617 141.227L159.266 153.109C159.392 153.523 159.123 153.982 158.746 154.004L154.295 154.299C154.049 154.316 153.838 154.152 153.758 153.885L150.531 142.904C150.451 142.638 150.234 142.468 149.988 142.479L148.781 142.53C148.46 142.542 148.203 142.853 148.203 143.216V154.044C148.203 154.412 147.945 154.724 147.625 154.747L143.106 155.047C142.78 155.07 142.517 154.786 142.517 154.418V122.018C142.517 121.65 142.78 121.35 143.106 121.35H143.094ZM148.191 127.73V136.558C148.191 136.926 148.449 137.21 148.769 137.204L151.658 137.113C151.721 137.113 151.784 137.102 151.841 137.079C152.282 136.898 152.762 136.348 153.288 135.436C153.843 134.461 154.124 133.334 154.124 132.048C154.124 130.761 153.883 129.634 153.409 128.67C152.962 127.764 152.522 127.231 152.087 127.067C152.024 127.044 151.961 127.039 151.898 127.039L148.769 127.073C148.449 127.073 148.191 127.373 148.191 127.741V127.73Z" fill="white"/>
<path d="M175.078 151.846L174.403 148.055C174.352 147.771 174.123 147.59 173.848 147.613L168.293 148.134C168.013 148.162 167.773 148.395 167.721 148.689L167.018 152.695C166.966 152.996 166.726 153.234 166.44 153.262L161.835 153.755C161.457 153.795 161.171 153.466 161.246 153.069L166.795 122.488C166.846 122.194 167.086 121.978 167.367 121.973L174.935 121.814C175.204 121.814 175.438 122.012 175.484 122.301L180.352 151.064C180.415 151.421 180.158 151.789 179.82 151.823L175.627 152.276C175.358 152.304 175.13 152.123 175.078 151.84V151.846ZM172.91 120.352L169.112 119.349C169.054 119.332 168.997 119.327 168.94 119.332C168.436 119.366 167.578 119.616 166.366 120.086C165.982 120.233 165.576 119.944 165.576 119.514V116.119C165.576 115.87 165.725 115.638 165.942 115.541C167.458 114.879 168.511 114.533 169.094 114.499C169.157 114.499 169.214 114.505 169.277 114.522L173.093 115.655C173.15 115.672 173.202 115.677 173.259 115.677C173.734 115.66 174.54 115.513 175.679 115.23C176.028 115.145 176.359 115.428 176.359 115.813V119.23C176.359 119.508 176.182 119.757 175.93 119.825C174.58 120.194 173.614 120.375 173.042 120.369C172.996 120.369 172.95 120.364 172.904 120.352H172.91ZM171.011 127.633L169.398 138.014L168.608 142.621C168.539 143.006 168.814 143.335 169.174 143.306L172.939 143.006C173.293 142.978 173.562 142.609 173.493 142.235L172.687 137.799L171.091 127.633H171.011Z" fill="white"/>
<path d="M195.953 121.35C196.084 121.35 196.216 121.395 196.319 121.486C198.087 123.038 199.397 125.084 200.255 127.622C201.13 130.217 201.565 132.892 201.565 135.651C201.565 138.411 201.141 141.063 200.289 143.607C199.459 146.094 198.138 148.321 196.319 150.293C196.216 150.406 196.073 150.474 195.93 150.491L187.915 151.319C187.761 151.336 187.618 151.29 187.503 151.2C185.541 149.539 184.088 147.46 183.156 144.978C182.189 142.406 181.708 139.635 181.708 136.677C181.708 133.719 182.206 130.824 183.202 128.007C184.163 125.288 185.598 123.117 187.509 121.491C187.618 121.401 187.755 121.35 187.898 121.35H195.947H195.953ZM190.776 146.106L193.184 145.896C193.356 145.879 193.521 145.788 193.63 145.641C194.231 144.768 194.751 143.482 195.18 141.782C195.65 139.929 195.884 137.991 195.884 135.963C195.884 133.934 195.655 132.036 195.203 130.257C194.786 128.625 194.277 127.407 193.676 126.602C193.573 126.461 193.407 126.387 193.23 126.393L190.781 126.438C190.604 126.438 190.438 126.523 190.329 126.665C189.712 127.509 189.174 128.772 188.728 130.467C188.236 132.32 187.99 134.291 187.99 136.377C187.99 138.462 188.236 140.422 188.728 142.253C189.174 143.924 189.712 145.148 190.329 145.93C190.438 146.066 190.604 146.128 190.781 146.111L190.776 146.106Z" fill="white"/>
<path d="M32.4873 47.2558L32.4918 47.2513L32.4873 47.2558Z" fill="#303030"/>
<path d="M36.2915 44.4794L36.296 44.4749L36.2915 44.4794Z" fill="#303030"/>
<path d="M36.6175 60.5727C34.3979 60.5727 32.4072 59.3431 32.0354 59.0938C30.4279 58.0399 28.8833 56.1813 27.2987 53.3595C26.0459 54.3851 24.4499 54.9348 22.6936 54.9348C19.3471 54.9348 16.2866 52.9345 15.2455 50.0674C13.7981 46.067 14.1414 42.1176 16.1893 39.2391C17.8712 36.8706 20.537 35.5163 23.506 35.5163C24.3011 35.5163 25.1135 35.6126 25.9258 35.8053C30.405 31.6972 35.4791 29.0851 40.6563 28.2408C42.075 28.0085 43.3964 27.8951 44.7007 27.8951C46.2453 27.8951 47.7612 28.0538 49.2028 28.3711C54.3799 29.2324 60.1348 30.4676 62.9436 34.2074C65.0774 37.0519 67.2112 38.8141 69.0933 40.3723C70.5291 41.5566 71.7648 42.5822 72.7659 43.8628C74.4248 45.9933 75.117 49.1551 72.7315 51.0647C71.3472 52.1753 69.4422 52.7589 67.2341 52.7589C64.1049 52.7589 60.97 51.603 58.699 49.6651C58.6303 52.4472 57.4862 55.5864 54.4085 57.9379C53.6248 58.5385 52.7038 58.8388 51.6684 58.8388C49.7463 58.8388 47.7555 57.7226 46.6285 56.7706C45.4043 55.7337 44.2945 54.1415 43.2534 51.9033C43.1848 54.1301 42.3896 56.8613 39.9069 59.2921C39.0602 60.1194 37.9275 60.5614 36.629 60.5614L36.6175 60.5727Z" fill="#303030"/>
<path d="M44.6952 29.3231C45.9652 29.3231 47.4068 29.4364 48.9284 29.7764C54.4145 30.683 59.4028 31.8843 61.7826 35.0631C65.6154 40.1741 69.4539 41.9589 71.6163 44.7354C72.3199 45.6364 73.8244 48.3619 71.8165 49.9711C70.6552 50.9004 69.0077 51.348 67.2171 51.348C64.1738 51.348 60.7357 50.0504 58.6019 47.5969C58.3617 45.744 56.411 42.4916 55.2325 41.466C55.1467 41.3923 55.0838 41.3017 55.0266 41.211H55.0151C56.2222 43.1885 56.5311 45.2511 57.0231 47.3249C57.2061 48.1012 58.293 53.1782 53.5278 56.8217C52.9557 57.258 52.315 57.428 51.6629 57.428C50.0154 57.428 48.3106 56.34 47.5555 55.6997C45.9023 54.3002 44.2604 51.5237 42.5328 45.9027C42.3212 45.2171 42.1553 44.1971 42.1438 43.1092C41.875 38.8878 45.2329 33.8788 49.7636 33.8788C50.965 33.8788 52.2464 34.2301 53.5621 35.0404C53.9626 35.335 54.1399 35.471 54.1685 35.471C54.1799 35.471 54.1685 35.4427 54.1399 35.3974C54.0998 35.2897 54.1628 35.318 54.0712 35.2104C53.8767 34.9894 54.2143 35.1651 53.6022 34.6381C52.0519 33.3575 50.4558 32.8135 48.917 32.8135C42.6072 32.8135 37.35 42.0553 41.0112 48.0502C40.9997 48.0559 40.994 48.0616 40.9826 48.0672C41.0455 48.1919 41.1084 48.3222 41.1771 48.4469C41.6519 49.0872 43.1678 54.1018 38.8888 58.2949C38.2481 58.9239 37.4415 59.1562 36.612 59.1562C35.119 59.1562 33.563 58.4026 32.8193 57.9153C31.0059 56.7253 29.0323 54.1698 26.6182 48.8038C25.9489 47.3136 25.291 44.1235 26.3493 42.0099C27.5506 39.0635 30.5997 36.5023 34.341 36.5023C36.3088 36.5023 38.4712 37.2106 40.6565 38.9501L40.6679 38.9615C39.9986 37.4372 37.9449 36.219 36.1716 35.7713C35.2677 35.471 34.3638 35.3294 33.4829 35.3294C25.6686 35.3294 19.5247 46.305 27.0701 51.586C25.9374 52.9176 24.3242 53.5182 22.6881 53.5182C20.1082 53.5182 17.471 52.0336 16.59 49.5858C14.0501 42.5596 17.8886 36.9273 23.5005 36.9273C24.3986 36.9273 25.3425 37.0746 26.315 37.3806C30.3366 33.5218 35.2677 30.5527 40.8796 29.6347C41.772 29.4874 43.0992 29.3118 44.6895 29.3118L44.6952 29.3231ZM44.6895 26.4786C43.3108 26.4786 41.9093 26.5976 40.4162 26.8413C35.1705 27.6969 30.0391 30.2524 25.4912 34.2698C24.8219 34.1564 24.1583 34.0941 23.4948 34.0941C20.0567 34.0941 16.9676 35.6694 15.0111 38.4175C12.6943 41.6756 12.2824 46.0954 13.8899 50.5377C15.1255 53.9602 18.7409 56.3457 22.6824 56.3457C24.1812 56.3457 25.5828 56.0057 26.8127 55.3598C28.2543 57.6716 29.6844 59.2468 31.2347 60.2611C32.4989 61.0884 34.5698 61.9723 36.612 61.9723C38.2939 61.9723 39.7755 61.3944 40.8968 60.2951C42.3383 58.8842 43.2822 57.36 43.8715 55.8584C44.4435 56.6403 45.0442 57.2976 45.6849 57.8416C46.1597 58.2439 48.671 60.2498 51.6572 60.2498C52.9958 60.2498 54.2429 59.8361 55.2726 59.0542C57.8583 57.0766 59.2369 54.6061 59.8033 52.1696C62.0114 53.4445 64.62 54.1698 67.2229 54.1698C69.8257 54.1698 71.9766 53.4729 73.6185 52.164C76.6103 49.7671 76.0211 45.7384 73.8873 42.9959C72.7947 41.5906 71.4389 40.4687 70.0031 39.2845C68.1839 37.7829 66.1188 36.0773 64.088 33.3632C60.9703 29.2098 54.9179 27.8895 49.4719 26.9829C47.9445 26.6486 46.337 26.4786 44.7009 26.4786H44.6895Z" fill="white"/>
<path d="M176.4 60.5727C175.101 60.5727 173.969 60.1364 173.122 59.3035C170.639 56.8726 169.844 54.1415 169.775 51.9146C168.734 54.1528 167.624 55.7394 166.4 56.7763C165.279 57.7282 163.283 58.8445 161.36 58.8445C160.325 58.8445 159.404 58.5385 158.62 57.9436C155.543 55.5977 154.399 52.4529 154.336 49.6708C152.065 51.603 148.93 52.7646 145.8 52.7646C143.587 52.7646 141.687 52.1809 140.303 51.0703C137.918 49.1608 138.61 45.999 140.269 43.8685C141.264 42.5879 142.505 41.5623 143.936 40.378C145.818 38.8255 147.951 37.0632 150.085 34.2131C152.888 30.4733 158.637 29.2381 163.815 28.3825C165.256 28.0651 166.772 27.9008 168.322 27.9008C169.627 27.9008 170.948 28.0141 172.367 28.2465C177.544 29.0907 182.624 31.6972 187.097 35.811C187.91 35.6183 188.722 35.522 189.517 35.522C192.48 35.522 195.146 36.8819 196.828 39.2448C198.876 42.1232 199.219 46.067 197.772 50.0731C196.737 52.9402 193.676 54.9404 190.329 54.9404C188.568 54.9404 186.971 54.3851 185.724 53.3595C184.14 56.1813 182.601 58.0399 180.988 59.0938C180.61 59.3431 178.625 60.5727 176.406 60.5727H176.4Z" fill="#303030"/>
<path d="M168.322 29.3233C169.913 29.3233 171.24 29.5046 172.132 29.6463C177.75 30.5585 182.681 33.5333 186.697 37.3921C187.669 37.0861 188.613 36.9388 189.511 36.9388C195.123 36.9388 198.962 42.5654 196.422 49.5973C195.541 52.0395 192.904 53.5297 190.324 53.5297C188.688 53.5297 187.069 52.9291 185.942 51.5975C193.487 46.3165 187.343 35.3409 179.529 35.3409C178.648 35.3409 177.744 35.4826 176.84 35.7829C175.067 36.2305 173.013 37.4488 172.344 38.973L172.355 38.9617C174.541 37.2221 176.703 36.5138 178.671 36.5138C182.412 36.5138 185.467 39.075 186.662 42.0215C187.726 44.1293 187.069 47.3251 186.394 48.8154C183.979 54.1814 182.006 56.7369 180.192 57.9268C179.449 58.4141 177.893 59.1677 176.4 59.1677C175.576 59.1677 174.769 58.9411 174.129 58.3064C169.85 54.1134 171.366 49.0987 171.84 48.4584C171.903 48.3337 171.966 48.2034 172.035 48.0788C172.029 48.0731 172.018 48.0674 172.006 48.0618C175.667 42.0668 170.405 32.8251 164.095 32.8251C162.556 32.8251 160.96 33.3747 159.41 34.6496C158.803 35.1766 159.135 35.0009 158.94 35.2219C158.855 35.3296 158.912 35.3012 158.872 35.4089C158.838 35.4599 158.826 35.4826 158.843 35.4826C158.878 35.4826 159.049 35.3466 159.45 35.0519C160.765 34.2416 162.052 33.8903 163.248 33.8903C167.779 33.8903 171.137 38.8993 170.868 43.1207C170.856 44.2087 170.691 45.2229 170.479 45.9142C168.751 51.5352 167.109 54.3117 165.456 55.7113C164.701 56.3516 162.996 57.4395 161.349 57.4395C160.697 57.4395 160.056 57.2695 159.484 56.8332C154.719 53.1954 155.806 48.1127 155.989 47.3365C156.481 45.2626 156.79 43.2001 157.997 41.2282H157.985C157.928 41.3188 157.865 41.4038 157.779 41.4775C156.601 42.5031 154.65 45.7499 154.41 47.6084C152.276 50.0563 148.838 51.3595 145.795 51.3595C144.004 51.3595 142.357 50.9119 141.195 49.9826C139.187 48.3791 140.698 45.6479 141.395 44.747C143.558 41.9705 147.396 40.1856 151.229 35.0746C153.615 31.8958 158.597 30.6945 164.083 29.7879C165.605 29.4479 167.047 29.3346 168.317 29.3346L168.322 29.3233ZM168.317 26.5015C166.68 26.5015 165.073 26.6715 163.546 27.0058C158.1 27.9124 152.047 29.2326 148.929 33.386C146.893 36.1002 144.834 37.8001 143.014 39.3073C141.579 40.4972 140.217 41.6192 139.13 43.0187C136.996 45.7612 136.401 49.79 139.399 52.1868C141.041 53.5014 143.255 54.1927 145.795 54.1927C148.335 54.1927 151 53.4674 153.214 52.1925C153.781 54.629 155.159 57.0995 157.745 59.077C158.769 59.859 160.016 60.2726 161.36 60.2726C164.341 60.2726 166.858 58.2668 167.333 57.8645C167.973 57.3205 168.574 56.6689 169.146 55.8812C169.735 57.3885 170.679 58.9127 172.121 60.318C173.242 61.4172 174.724 61.9952 176.405 61.9952C178.442 61.9952 180.519 61.1112 181.783 60.284C183.333 59.2697 184.763 57.6888 186.205 55.3826C187.435 56.0286 188.836 56.3686 190.335 56.3686C194.277 56.3686 197.892 53.983 199.128 50.5606C200.735 46.1182 200.323 41.6985 198.006 38.4404C196.05 35.6922 192.961 34.117 189.523 34.117C188.865 34.117 188.196 34.1736 187.526 34.2926C182.978 30.2752 177.847 27.7197 172.601 26.8641C171.102 26.6205 169.707 26.5015 168.328 26.5015H168.317Z" fill="white"/>
<path d="M35.353 108.623L34.5464 102.872C34.5063 102.588 34.2603 102.379 33.9686 102.384L24.4324 102.543C24.175 102.543 23.9519 102.719 23.8889 102.968L22.3844 108.691C22.3215 108.94 22.0927 109.116 21.8295 109.116H14.5472C14.1754 109.116 13.9008 108.77 13.9923 108.413L24.564 66.511C24.6212 66.2787 24.8157 66.1087 25.0559 66.0861L38.5279 64.6072C38.8368 64.5732 39.1171 64.7941 39.1572 65.1001L44.6546 108.481C44.6947 108.821 44.4315 109.116 44.0883 109.116H35.9193C35.6333 109.116 35.393 108.906 35.353 108.629V108.623ZM30.8852 73.8376L27.3156 88.7399L25.6108 95.3582C25.5193 95.7265 25.8053 96.0778 26.1829 96.0665L33.1448 95.8342C33.4823 95.8228 33.7398 95.5225 33.694 95.1882L32.7215 88.4623L31.0282 73.8262L30.8909 73.8376H30.8852Z" fill="white"/>
<path d="M49.0764 63.4568L66.0493 62.0856C66.118 62.0856 66.1866 62.0856 66.2553 62.1026C69.0812 62.8506 71.5068 64.4315 73.5147 66.8623C75.5569 69.3328 76.558 72.4663 76.5066 76.2457C76.4265 82.235 74.0353 86.7397 69.4016 89.7542C69.1842 89.8958 69.087 90.1678 69.1728 90.4115L75.4482 108.362C75.5741 108.731 75.2995 109.116 74.9105 109.116H66.6328C66.3869 109.116 66.1637 108.957 66.0894 108.725L60.8379 92.7856C60.7578 92.5476 60.529 92.389 60.2773 92.3947L57.7831 92.4683C57.4742 92.4797 57.2282 92.729 57.2282 93.035L57.1596 108.555C57.1596 108.867 56.9021 109.122 56.5875 109.122H49.1336C48.8189 109.122 48.5615 108.867 48.5615 108.555V64.0178C48.5615 63.7232 48.7903 63.4795 49.0878 63.4512L49.0764 63.4568ZM57.3083 71.4067L57.2511 84.4958C57.2511 84.8188 57.52 85.0795 57.846 85.0625L62.8458 84.8528C62.903 84.8528 62.9602 84.8415 63.0174 84.8245C63.7554 84.5808 64.5734 83.7819 65.4716 82.422C66.404 81.0054 66.8845 79.3735 66.9017 77.5206C66.9189 75.6621 66.5356 74.0585 65.7576 72.6986C65.0082 71.3953 64.2702 70.6587 63.5323 70.4887C63.4751 70.4774 63.4121 70.4717 63.3549 70.4774L57.846 70.8457C57.5486 70.8684 57.314 71.112 57.314 71.4067H57.3083Z" fill="white"/>
<path d="M81.3347 61.196L98.6623 60.55C98.731 60.55 98.8053 60.5557 98.874 60.5784C101.7 61.4907 104.108 63.2472 106.082 65.848C108.078 68.4829 109.039 71.7467 108.959 75.6338C108.834 81.776 106.454 86.3317 101.86 89.3292C101.643 89.4709 101.545 89.7315 101.626 89.9752L107.701 108.368C107.821 108.736 107.546 109.11 107.157 109.11H99.0284C98.7767 109.11 98.5593 108.952 98.485 108.714L93.2907 92.287C93.2163 92.049 92.9875 91.8847 92.7358 91.8904L90.2073 91.9244C89.8984 91.9244 89.6467 92.1794 89.641 92.4853L89.538 108.549C89.538 108.861 89.2806 109.11 88.9659 109.11H81.3518C81.0372 109.11 80.7798 108.855 80.7798 108.544V61.7626C80.7798 61.4567 81.0258 61.2073 81.329 61.196H81.3347ZM89.7897 69.9334L89.7039 83.6629C89.7039 83.9802 89.967 84.2409 90.2874 84.2352L95.3558 84.1389C95.413 84.1389 95.4702 84.1332 95.5274 84.1105C96.2654 83.8782 97.0892 83.0679 97.993 81.6854C98.9312 80.2461 99.4174 78.5689 99.446 76.648C99.4746 74.7271 99.0971 73.0442 98.3248 71.605C97.5811 70.2224 96.8374 69.4291 96.0995 69.2195C96.0423 69.2025 95.9794 69.1968 95.9164 69.2025L90.3503 69.3725C90.0414 69.3838 89.7954 69.6331 89.7954 69.9334H89.7897Z" fill="white"/>
<path d="M132.74 108.646L131.544 102.039C131.499 101.772 131.258 101.574 130.984 101.574L121.551 101.5C121.27 101.5 121.036 101.693 120.984 101.965L119.76 108.651C119.709 108.923 119.474 109.116 119.199 109.116H111.213C110.853 109.116 110.584 108.793 110.653 108.447L119.52 61.4907C119.571 61.2131 119.823 61.0147 120.109 61.0317L132.763 61.655C133.032 61.6664 133.255 61.8647 133.301 62.1253L141.332 108.459C141.39 108.804 141.121 109.122 140.766 109.122H133.306C133.032 109.122 132.791 108.923 132.746 108.657L132.74 108.646ZM126.161 70.1942L123.587 86.0428L122.248 93.511C122.186 93.8567 122.449 94.174 122.803 94.174L129.657 94.2816C130.017 94.2816 130.292 93.9643 130.229 93.613L128.85 86.1675L126.293 70.1998H126.161V70.1942Z" fill="white"/>
<path d="M149.724 62.4539L164.746 63.4059C165.05 63.4229 165.284 63.6722 165.284 63.9725V70.6701C165.284 70.993 165.009 71.2537 164.683 71.2367L152.796 70.6134L152.596 71.0044L163.042 90.6608C165.135 94.5422 166.182 97.4773 166.182 99.4719C166.182 103.778 164.804 106.951 162.041 109.003C161.938 109.076 161.812 109.116 161.686 109.116H144.93C144.616 109.116 144.358 108.861 144.358 108.549V101.903C144.358 101.585 144.616 101.33 144.936 101.336L158.116 101.472L158.311 101.081L146.383 79.3225C144.627 76.121 143.746 73.5259 143.746 71.554C143.746 66.9416 145.668 63.9215 149.478 62.4936C149.558 62.4653 149.644 62.4539 149.73 62.4596L149.724 62.4539Z" fill="white"/>
<path d="M177.664 108.623L178.47 102.872C178.51 102.588 178.756 102.379 179.048 102.384L188.584 102.543C188.842 102.543 189.065 102.719 189.128 102.968L190.632 108.691C190.695 108.94 190.924 109.116 191.187 109.116H198.469C198.841 109.116 199.116 108.77 199.024 108.413L188.453 66.511C188.395 66.2787 188.201 66.1087 187.961 66.0861L174.489 64.6072C174.18 64.5732 173.899 64.7941 173.859 65.1001L168.362 108.481C168.322 108.821 168.585 109.116 168.928 109.116H177.097C177.383 109.116 177.624 108.906 177.664 108.629V108.623ZM182.131 73.8376L185.701 88.7399L187.406 95.3582C187.497 95.7265 187.211 96.0778 186.834 96.0665L179.872 95.8342C179.534 95.8228 179.277 95.5225 179.323 95.1882L180.295 88.4623L181.988 73.8262L182.126 73.8376H182.131Z" fill="white"/>
</svg>
